<svg width="154" height="140" viewBox="0 0 154 140" fill="none" xmlns="http://www.w3.org/2000/svg">
<path d="M73.373 63.7529C70.9805 65.0062 68.2347 66.0088 65.1357 66.7607C62.0368 67.5127 58.9036 67.8887 55.7363 67.8887C50.5866 67.8887 46.0521 66.9544 42.1328 65.0859C38.2363 63.1947 35.2057 60.54 33.041 57.1221C30.8991 53.6813 29.8281 49.7051 29.8281 45.1934C29.8281 40.5677 31.0586 36.4661 33.5195 32.8887C35.9805 29.3112 39.2845 26.5426 43.4316 24.583C47.5788 22.6234 52.1019 21.6436 57.001 21.6436C59.6898 21.6436 62.1507 21.8486 64.3838 22.2588C66.6396 22.6689 69.1803 23.3753 72.0059 24.3779L73.0312 34.7002C72.3249 34.7686 71.6641 34.8027 71.0488 34.8027C70.7298 34.5293 70.4336 34.1761 70.1602 33.7432C69.9095 33.3102 69.5563 32.6608 69.1006 31.7949C68.8727 31.3392 68.6335 30.8949 68.3828 30.4619C68.1322 30.0062 67.9043 29.653 67.6992 29.4023C64.8281 25.9844 60.9658 24.2754 56.1123 24.2754C52.6488 24.2754 49.5384 25.1299 46.7812 26.8389C44.0241 28.5479 41.8708 30.9062 40.3213 33.9141C38.7718 36.8991 37.9971 40.2373 37.9971 43.9287C37.9971 47.9163 38.7604 51.5052 40.2871 54.6953C41.8366 57.8854 44.0013 60.3805 46.7812 62.1807C49.5612 63.9808 52.7399 64.8809 56.3174 64.8809C58.2087 64.8809 59.8721 64.7214 61.3076 64.4023C62.766 64.0605 64.1445 63.4795 65.4434 62.6592C65.7168 60.335 65.8535 57.4411 65.8535 53.9775C65.8535 51.8128 65.5345 49.8532 64.8965 48.0986C64.6458 47.3923 64.1673 46.9023 63.4609 46.6289C62.7773 46.3327 61.8431 46.0934 60.6582 45.9111C59.61 45.7288 58.8809 45.5579 58.4707 45.3984C58.4707 45.0566 58.4821 44.7148 58.5049 44.373C58.5277 44.0085 58.5391 43.7578 58.5391 43.6211H79.0469C79.0469 43.7578 79.0583 44.0085 79.0811 44.373C79.1038 44.7148 79.1152 45.0566 79.1152 45.3984C78.819 45.5124 78.4886 45.6263 78.124 45.7402C77.0303 46.1276 76.1758 46.4922 75.5605 46.834C74.9453 47.1758 74.4212 47.6999 73.9883 48.4062C73.5781 49.0898 73.373 50.0127 73.373 51.1748V63.7529Z" fill="white"/>
<path d="M100.085 88.0723C99.4469 88.1406 98.7975 88.1748 98.1367 88.1748C97.0885 85.9873 96.2227 84.4606 95.5391 83.5947C94.8555 82.7288 94.0579 82.1706 93.1465 81.9199C92.2578 81.6693 90.8109 81.5439 88.8057 81.5439H80.2949V95.1816C80.2949 96.9362 80.4658 98.235 80.8076 99.0781C81.1494 99.8984 81.6051 100.445 82.1748 100.719C82.7673 100.969 83.6559 101.186 84.8408 101.368C85.6839 101.505 86.3675 101.63 86.8916 101.744C87.4385 101.835 88.0195 101.995 88.6348 102.223V104H65.5977L65.5293 102.223C66.0762 101.972 66.6003 101.778 67.1016 101.642C67.6029 101.505 68.0358 101.402 68.4004 101.334C68.7878 101.243 69.0384 101.186 69.1523 101.163C70.1777 100.958 70.9297 100.73 71.4082 100.479C71.8867 100.206 72.2627 99.6706 72.5361 98.873C72.8096 98.0527 72.9463 96.7881 72.9463 95.0791V69.1025C72.9463 67.2568 72.7868 65.901 72.4678 65.0352C72.1715 64.1465 71.7272 63.5426 71.1348 63.2236C70.5651 62.8818 69.6309 62.5286 68.332 62.1641C67.1243 61.8451 66.1217 61.5374 65.3242 61.2412V59.498L99.5381 59.4639L105.28 59.3955V69.9912L103.742 70.0596C103.4 69.6722 103.093 69.262 102.819 68.8291C102.546 68.3734 102.204 67.7581 101.794 66.9834C101.27 66.0036 100.814 65.2288 100.427 64.6592C100.039 64.0667 99.5495 63.5426 98.957 63.0869C98.3874 62.6312 97.7038 62.3464 96.9062 62.2324C95.8353 62.0729 94.7529 61.9818 93.6592 61.959C92.5882 61.9134 91.2438 61.8906 89.626 61.8906H83.0635C82.1976 61.8906 81.5824 61.9362 81.2178 62.0273C80.876 62.1185 80.6367 62.335 80.5 62.6768C80.3633 62.9958 80.2949 63.554 80.2949 64.3516V78.9463C81.2747 78.9463 82.6077 78.9691 84.2939 79.0146C85.7979 79.0602 86.8916 79.083 87.5752 79.083C90.264 79.083 92.4743 78.8551 94.2061 78.3994C94.958 78.1943 95.5391 77.807 95.9492 77.2373C96.3822 76.6449 96.8151 75.8359 97.248 74.8105C97.3164 74.651 97.4303 74.4004 97.5898 74.0586C97.7493 73.694 97.9089 73.3864 98.0684 73.1357L100.085 73.2041V88.0723Z" fill="white"/>
<path d="M16.9189 137.84C16.0645 138.288 15.0838 138.646 13.9771 138.915C12.8703 139.183 11.7513 139.317 10.6201 139.317C8.78092 139.317 7.16146 138.984 5.76172 138.316C4.37012 137.641 3.28776 136.693 2.51465 135.472C1.74967 134.243 1.36719 132.823 1.36719 131.212C1.36719 129.56 1.80664 128.095 2.68555 126.817C3.56445 125.54 4.74447 124.551 6.22559 123.851C7.70671 123.151 9.3221 122.801 11.0718 122.801C12.0321 122.801 12.911 122.875 13.7085 123.021C14.5142 123.167 15.4215 123.42 16.4307 123.778L16.7969 127.464C16.5446 127.489 16.3086 127.501 16.0889 127.501C15.9749 127.403 15.8691 127.277 15.7715 127.123C15.682 126.968 15.5558 126.736 15.3931 126.427C15.3117 126.264 15.2262 126.105 15.1367 125.951C15.0472 125.788 14.9658 125.662 14.8926 125.572C13.8672 124.352 12.4878 123.741 10.7544 123.741C9.51742 123.741 8.40658 124.046 7.42188 124.657C6.43717 125.267 5.66813 126.109 5.11475 127.184C4.56136 128.25 4.28467 129.442 4.28467 130.76C4.28467 132.184 4.55729 133.466 5.10254 134.605C5.65592 135.745 6.42904 136.636 7.42188 137.279C8.41471 137.922 9.54997 138.243 10.8276 138.243C11.5031 138.243 12.0972 138.186 12.6099 138.072C13.1307 137.95 13.623 137.743 14.0869 137.45C14.1846 136.62 14.2334 135.586 14.2334 134.349C14.2334 133.576 14.1195 132.876 13.8916 132.25C13.8021 131.997 13.6312 131.822 13.3789 131.725C13.1348 131.619 12.8011 131.533 12.3779 131.468C12.0036 131.403 11.7432 131.342 11.5967 131.285C11.5967 131.163 11.6007 131.041 11.6089 130.919C11.617 130.789 11.6211 130.699 11.6211 130.65H18.9453C18.9453 130.699 18.9494 130.789 18.9575 130.919C18.9657 131.041 18.9697 131.163 18.9697 131.285C18.8639 131.326 18.7459 131.367 18.6157 131.407C18.2251 131.546 17.9199 131.676 17.7002 131.798C17.4805 131.92 17.2933 132.107 17.1387 132.359C16.9922 132.604 16.9189 132.933 16.9189 133.348V137.84ZM25.9399 127.696C27.0223 127.696 28.007 127.932 28.894 128.404C29.7892 128.868 30.4972 129.535 31.0181 130.406C31.5389 131.269 31.7993 132.274 31.7993 133.421C31.7993 134.569 31.5389 135.586 31.0181 136.473C30.4972 137.352 29.8014 138.036 28.9307 138.524C28.0599 139.004 27.1077 139.244 26.0742 139.244C25.0488 139.244 24.0885 138.996 23.1934 138.5C22.2982 138.003 21.582 137.315 21.0449 136.437C20.5078 135.549 20.2393 134.549 20.2393 133.434C20.2393 132.319 20.4997 131.326 21.0205 130.455C21.5413 129.576 22.2371 128.897 23.1079 128.417C23.9868 127.936 24.9308 127.696 25.9399 127.696ZM26.2329 138.292C27.2664 138.292 28.0518 137.922 28.5889 137.181C29.126 136.441 29.3945 135.468 29.3945 134.264C29.3945 133.222 29.248 132.266 28.9551 131.395C28.6702 130.516 28.2593 129.816 27.7222 129.295C27.1851 128.775 26.5666 128.514 25.8667 128.514C25.2482 128.514 24.6989 128.665 24.2188 128.966C23.7467 129.267 23.3724 129.731 23.0957 130.357C22.819 130.984 22.6807 131.769 22.6807 132.713C22.6807 133.641 22.8271 134.536 23.1201 135.399C23.4131 136.253 23.8281 136.949 24.3652 137.486C24.9023 138.023 25.5249 138.292 26.2329 138.292ZM39.5142 127.696C40.5965 127.696 41.5812 127.932 42.4683 128.404C43.3634 128.868 44.0715 129.535 44.5923 130.406C45.1131 131.269 45.3735 132.274 45.3735 133.421C45.3735 134.569 45.1131 135.586 44.5923 136.473C44.0715 137.352 43.3757 138.036 42.5049 138.524C41.6341 139.004 40.682 139.244 39.6484 139.244C38.623 139.244 37.6628 138.996 36.7676 138.5C35.8724 138.003 35.1562 137.315 34.6191 136.437C34.082 135.549 33.8135 134.549 33.8135 133.434C33.8135 132.319 34.0739 131.326 34.5947 130.455C35.1156 129.576 35.8114 128.897 36.6821 128.417C37.561 127.936 38.505 127.696 39.5142 127.696ZM39.8071 138.292C40.8407 138.292 41.626 137.922 42.1631 137.181C42.7002 136.441 42.9688 135.468 42.9688 134.264C42.9688 133.222 42.8223 132.266 42.5293 131.395C42.2445 130.516 41.8335 129.816 41.2964 129.295C40.7593 128.775 40.1408 128.514 39.4409 128.514C38.8224 128.514 38.2731 128.665 37.793 128.966C37.321 129.267 36.9466 129.731 36.6699 130.357C36.3932 130.984 36.2549 131.769 36.2549 132.713C36.2549 133.641 36.4014 134.536 36.6943 135.399C36.9873 136.253 37.4023 136.949 37.9395 137.486C38.4766 138.023 39.0991 138.292 39.8071 138.292ZM56.4209 124.657C56.3151 124.494 56.1076 124.331 55.7983 124.168C55.4972 124.006 55.2002 123.867 54.9072 123.753C54.6224 123.639 54.4352 123.57 54.3457 123.546L54.3701 123.119L57.8125 122.289L58.6914 122.203V136.571C58.6914 137.059 58.8989 137.409 59.314 137.621C59.7371 137.832 60.1888 137.938 60.6689 137.938V138.609L57.4097 139.146H56.5918L56.4819 137.254C55.9041 137.922 55.2979 138.422 54.6631 138.756C54.0283 139.081 53.3488 139.244 52.6245 139.244C51.7049 139.244 50.8626 139.024 50.0977 138.585C49.3408 138.137 48.7427 137.515 48.3032 136.717C47.8638 135.912 47.644 134.988 47.644 133.946C47.644 132.75 47.8882 131.68 48.3765 130.736C48.8729 129.792 49.5524 129.055 50.415 128.526C51.2777 127.997 52.242 127.733 53.3081 127.733C53.8045 127.733 54.2887 127.81 54.7607 127.965C55.2327 128.111 55.7861 128.335 56.4209 128.636V124.657ZM56.4209 132.774C56.4209 131.985 56.3517 131.35 56.2134 130.87C56.075 130.382 55.7943 129.951 55.3711 129.576C55.0456 129.291 54.6956 129.072 54.3213 128.917C53.9469 128.754 53.5685 128.673 53.186 128.673C52.5431 128.673 51.9735 128.88 51.4771 129.295C50.9806 129.71 50.5941 130.264 50.3174 130.956C50.0488 131.639 49.9146 132.38 49.9146 133.177C49.9146 133.95 50.0488 134.691 50.3174 135.399C50.5941 136.099 51.005 136.673 51.5503 137.12C52.0955 137.568 52.7547 137.792 53.5278 137.792C54.1463 137.792 54.6956 137.657 55.1758 137.389C55.6641 137.112 56.0791 136.746 56.4209 136.29V132.774ZM80.1392 133.312C79.9113 133.336 79.6794 133.348 79.4434 133.348C79.069 132.567 78.7598 132.022 78.5156 131.712C78.2715 131.403 77.9867 131.204 77.6611 131.114C77.3438 131.025 76.827 130.98 76.1108 130.98H73.0713V135.851C73.0713 136.477 73.1323 136.941 73.2544 137.242C73.3765 137.535 73.5392 137.73 73.7427 137.828C73.9543 137.918 74.2716 137.995 74.6948 138.06C74.9959 138.109 75.2401 138.154 75.4272 138.194C75.6226 138.227 75.8301 138.284 76.0498 138.365V139H67.8223L67.7979 138.365C67.9932 138.276 68.1803 138.207 68.3594 138.158C68.5384 138.109 68.693 138.072 68.8232 138.048C68.9616 138.015 69.0511 137.995 69.0918 137.987C69.458 137.914 69.7266 137.832 69.8975 137.743C70.0684 137.645 70.2026 137.454 70.3003 137.169C70.3979 136.876 70.4468 136.424 70.4468 135.814V126.537C70.4468 125.877 70.3898 125.393 70.2759 125.084C70.1701 124.767 70.0114 124.551 69.7998 124.437C69.5964 124.315 69.2627 124.189 68.7988 124.059C68.3675 123.945 68.0094 123.835 67.7246 123.729V123.106L79.9438 123.094L81.9946 123.07V126.854L81.4453 126.878C81.3232 126.74 81.2134 126.594 81.1157 126.439C81.0181 126.276 80.896 126.056 80.7495 125.78C80.5623 125.43 80.3996 125.153 80.2612 124.95C80.1229 124.738 79.9479 124.551 79.7363 124.388C79.5329 124.225 79.2887 124.124 79.0039 124.083C78.6214 124.026 78.2349 123.993 77.8442 123.985C77.4618 123.969 76.9816 123.961 76.4038 123.961H74.0601C73.7508 123.961 73.5311 123.977 73.4009 124.01C73.2788 124.042 73.1934 124.12 73.1445 124.242C73.0957 124.356 73.0713 124.555 73.0713 124.84V130.052C73.4212 130.052 73.8973 130.06 74.4995 130.077C75.0366 130.093 75.4272 130.101 75.6714 130.101C76.6317 130.101 77.4211 130.02 78.0396 129.857C78.3081 129.784 78.5156 129.645 78.6621 129.442C78.8167 129.23 78.9714 128.941 79.126 128.575C79.1504 128.518 79.1911 128.429 79.248 128.307C79.305 128.176 79.362 128.067 79.4189 127.977L80.1392 128.001V133.312ZM86.9873 136.18C86.9873 136.563 87.028 136.904 87.1094 137.206C87.1989 137.499 87.4064 137.759 87.7319 137.987C88.0575 138.215 88.5457 138.349 89.1968 138.39L89.1846 139H82.8247C82.8247 138.935 82.8206 138.829 82.8125 138.683C82.8125 138.536 82.8166 138.422 82.8247 138.341L83.2275 138.231C83.6589 138.117 83.9681 138.011 84.1553 137.914C84.3424 137.816 84.4808 137.645 84.5703 137.401C84.668 137.149 84.7168 136.766 84.7168 136.253V130.113C84.611 129.934 84.4157 129.771 84.1309 129.625C83.846 129.47 83.549 129.344 83.2397 129.247C82.9386 129.149 82.7881 129.104 82.7881 129.112L82.8125 128.685L86.0596 127.818H86.7554L86.9507 130.064C87.4064 129.226 87.8784 128.632 88.3667 128.282C88.8631 127.932 89.4287 127.757 90.0635 127.757C90.389 127.757 90.682 127.826 90.9424 127.965C91.2109 128.095 91.4185 128.266 91.5649 128.478C91.7196 128.681 91.7969 128.889 91.7969 129.1C91.7969 129.238 91.7562 129.426 91.6748 129.662C91.6016 129.898 91.4836 130.105 91.3208 130.284C91.1662 130.463 90.9749 130.553 90.7471 130.553C90.4867 130.553 90.2832 130.496 90.1367 130.382C89.9902 130.26 89.8397 130.081 89.6851 129.845C89.5711 129.666 89.4613 129.531 89.3555 129.442C89.2578 129.352 89.1317 129.308 88.9771 129.308C88.7166 129.308 88.4806 129.385 88.269 129.54C88.0656 129.686 87.8866 129.869 87.7319 130.089C87.5773 130.309 87.3901 130.602 87.1704 130.968L86.9873 131.273V136.18ZM94.9097 132.579C94.9015 132.66 94.8975 132.778 94.8975 132.933C94.8975 133.958 95.0806 134.817 95.4468 135.509C95.8211 136.192 96.3175 136.701 96.936 137.035C97.5627 137.36 98.2625 137.523 99.0356 137.523C100.061 137.523 101.05 137.23 102.002 136.644L102.356 136.986C102.161 137.458 101.831 137.865 101.367 138.207C100.911 138.548 100.391 138.809 99.8047 138.988C99.2269 139.159 98.6654 139.244 98.1201 139.244C97.0947 139.244 96.1711 139.004 95.3491 138.524C94.5353 138.044 93.8965 137.372 93.4326 136.51C92.9769 135.647 92.749 134.658 92.749 133.543C92.749 132.412 92.9972 131.403 93.4937 130.516C93.9901 129.621 94.6493 128.929 95.4712 128.441C96.3013 127.944 97.1883 127.696 98.1323 127.696C98.9054 127.696 99.6012 127.855 100.22 128.172C100.846 128.482 101.355 128.921 101.746 129.491C102.136 130.052 102.384 130.699 102.49 131.432C102.58 131.806 102.625 132.152 102.625 132.469V132.579H94.9097ZM99.3042 131.798C99.6623 131.782 99.9634 131.716 100.208 131.603C100.151 130.634 99.9227 129.877 99.5239 129.332C99.1333 128.787 98.5758 128.514 97.8516 128.514C97.3226 128.514 96.8506 128.673 96.4355 128.99C96.0286 129.308 95.6991 129.731 95.4468 130.26C95.1945 130.781 95.0317 131.354 94.9585 131.981L99.3042 131.798ZM106.677 132.579C106.669 132.66 106.665 132.778 106.665 132.933C106.665 133.958 106.848 134.817 107.214 135.509C107.589 136.192 108.085 136.701 108.704 137.035C109.33 137.36 110.03 137.523 110.803 137.523C111.829 137.523 112.817 137.23 113.77 136.644L114.124 136.986C113.928 137.458 113.599 137.865 113.135 138.207C112.679 138.548 112.158 138.809 111.572 138.988C110.994 139.159 110.433 139.244 109.888 139.244C108.862 139.244 107.939 139.004 107.117 138.524C106.303 138.044 105.664 137.372 105.2 136.51C104.744 135.647 104.517 134.658 104.517 133.543C104.517 132.412 104.765 131.403 105.261 130.516C105.758 129.621 106.417 128.929 107.239 128.441C108.069 127.944 108.956 127.696 109.9 127.696C110.673 127.696 111.369 127.855 111.987 128.172C112.614 128.482 113.123 128.921 113.513 129.491C113.904 130.052 114.152 130.699 114.258 131.432C114.347 131.806 114.392 132.152 114.392 132.469V132.579H106.677ZM111.072 131.798C111.43 131.782 111.731 131.716 111.975 131.603C111.918 130.634 111.69 129.877 111.292 129.332C110.901 128.787 110.343 128.514 109.619 128.514C109.09 128.514 108.618 128.673 108.203 128.99C107.796 129.308 107.467 129.731 107.214 130.26C106.962 130.781 106.799 131.354 106.726 131.981L111.072 131.798ZM120.068 136.144C120.068 136.827 120.207 137.356 120.483 137.73C120.768 138.097 121.236 138.316 121.887 138.39C121.887 138.512 121.883 138.634 121.875 138.756C121.867 138.878 121.863 138.959 121.863 139H115.857L115.845 138.39C115.918 138.341 116.012 138.296 116.125 138.255C116.248 138.215 116.37 138.178 116.492 138.146C116.85 138.048 117.131 137.942 117.334 137.828C117.537 137.706 117.66 137.527 117.7 137.291C117.765 136.941 117.798 136.583 117.798 136.217L117.786 124.73C117.688 124.567 117.489 124.409 117.188 124.254C116.895 124.091 116.606 123.957 116.321 123.851C116.036 123.737 115.853 123.668 115.771 123.644L115.796 123.216L119.189 122.289L120.068 122.203V136.144ZM130.225 131.566C130.225 130.956 130.168 130.439 130.054 130.016C129.948 129.592 129.728 129.251 129.395 128.99C129.069 128.73 128.601 128.6 127.991 128.6C127.779 128.6 127.519 128.644 127.209 128.734C126.9 128.823 126.628 128.954 126.392 129.125C126.164 129.287 126.05 129.479 126.05 129.698C126.05 129.788 126.066 129.877 126.099 129.967C126.131 130.048 126.184 130.154 126.257 130.284C126.331 130.406 126.383 130.512 126.416 130.602C126.449 130.691 126.465 130.785 126.465 130.882C126.465 131.208 126.359 131.48 126.147 131.7C125.944 131.912 125.68 132.018 125.354 132.018C124.947 132.018 124.622 131.867 124.377 131.566C124.141 131.265 124.023 130.903 124.023 130.479C124.023 129.845 124.272 129.32 124.768 128.905C125.264 128.49 125.863 128.185 126.562 127.989C127.271 127.794 127.93 127.696 128.54 127.696C129.688 127.696 130.542 127.867 131.104 128.209C131.673 128.543 132.048 129.035 132.227 129.686C132.414 130.329 132.507 131.232 132.507 132.396L132.483 133.006C132.475 133.185 132.463 133.482 132.446 133.897C132.438 134.312 132.434 134.695 132.434 135.045C132.434 136.876 132.625 137.792 133.008 137.792C133.285 137.792 133.643 137.511 134.082 136.949L134.595 137.499C134.237 138.084 133.883 138.524 133.533 138.817C133.183 139.102 132.723 139.244 132.153 139.244C131.616 139.244 131.173 139.077 130.823 138.744C130.481 138.402 130.294 137.962 130.261 137.425C129.74 137.995 129.154 138.443 128.503 138.768C127.861 139.085 127.177 139.244 126.453 139.244C125.948 139.244 125.48 139.155 125.049 138.976C124.626 138.788 124.284 138.512 124.023 138.146C123.771 137.779 123.645 137.34 123.645 136.827C123.645 136.054 123.942 135.411 124.536 134.898C125.13 134.386 125.814 133.995 126.587 133.727C127.36 133.458 128.304 133.189 129.419 132.921C129.517 132.905 129.785 132.84 130.225 132.726V131.566ZM130.225 133.446C130.103 133.486 129.948 133.535 129.761 133.592C129.061 133.82 128.463 134.04 127.966 134.251C127.47 134.455 127.026 134.732 126.636 135.082C126.245 135.431 126.05 135.842 126.05 136.314C126.05 136.795 126.18 137.173 126.44 137.45C126.709 137.726 127.083 137.865 127.563 137.865C128.044 137.865 128.507 137.747 128.955 137.511C129.403 137.267 129.826 136.949 130.225 136.559V133.446ZM143.347 131.297C143.233 131.306 143.042 131.31 142.773 131.31C142.537 130.488 142.179 129.816 141.699 129.295C141.227 128.775 140.621 128.514 139.88 128.514C139.368 128.514 138.961 128.64 138.66 128.893C138.367 129.145 138.22 129.511 138.22 129.991C138.22 130.325 138.342 130.634 138.586 130.919C138.831 131.204 139.128 131.456 139.478 131.676C139.836 131.887 140.304 132.14 140.881 132.433C141.02 132.498 141.227 132.604 141.504 132.75C142.415 133.238 143.079 133.739 143.494 134.251C143.917 134.756 144.128 135.375 144.128 136.107C144.128 136.782 143.962 137.356 143.628 137.828C143.294 138.292 142.834 138.646 142.249 138.89C141.663 139.126 140.991 139.244 140.234 139.244C139.567 139.244 138.892 139.163 138.208 139C137.524 138.845 136.963 138.634 136.523 138.365V135.387C136.841 135.346 137.056 135.326 137.17 135.326C137.358 136.229 137.687 136.965 138.159 137.535C138.639 138.105 139.294 138.39 140.125 138.39C140.719 138.39 141.211 138.243 141.602 137.95C142 137.649 142.2 137.254 142.2 136.766C142.2 136.457 142.11 136.184 141.931 135.948C141.752 135.712 141.52 135.505 141.235 135.326C140.951 135.147 140.523 134.907 139.954 134.605C139.189 134.199 138.607 133.869 138.208 133.617C137.59 133.234 137.122 132.807 136.804 132.335C136.495 131.863 136.34 131.301 136.34 130.65C136.34 130.024 136.499 129.491 136.816 129.051C137.134 128.604 137.565 128.266 138.11 128.038C138.656 127.81 139.27 127.696 139.954 127.696C140.58 127.696 141.174 127.774 141.736 127.928C142.306 128.083 142.818 128.303 143.274 128.587L143.347 131.297Z" fill="white"/>
</svg>
