<svg width="17" height="13" viewBox="0 0 17 13" fill="none" xmlns="http://www.w3.org/2000/svg">
<path d="M16.1499 0.00570344C16.0775 -0.00190115 16.0045 -0.00190115 15.9321 0.00570344H1.05708C0.961739 0.00720058 0.867035 0.0217695 0.775513 0.049018L8.45208 7.84023L16.1499 0.00570344Z" fill="#F8F8F8"/>
<path d="M16.9363 0.758118L9.20125 8.60889C9.00218 8.81057 8.73288 8.92378 8.45219 8.92378C8.17149 8.92378 7.9022 8.81057 7.70312 8.60889L0.0371875 0.817675C0.0136209 0.905951 0.00112555 0.996914 0 1.08839V11.917C0 12.2042 0.111942 12.4797 0.311199 12.6827C0.510456 12.8858 0.780707 12.9999 1.0625 12.9999H15.9375C16.2193 12.9999 16.4895 12.8858 16.6888 12.6827C16.8881 12.4797 17 12.2042 17 11.917V1.08839C16.9958 0.975587 16.9743 0.864149 16.9363 0.758118ZM1.79031 11.917H1.05188V11.1428L4.91406 7.23906L5.66313 8.00248L1.79031 11.917ZM15.9269 11.917H15.1831L11.3103 8.00248L12.0594 7.23906L15.9216 11.1428L15.9269 11.917Z" fill="#F8F8F8"/>
</svg>
