<svg width="50" height="48" viewBox="0 0 50 48" fill="none" xmlns="http://www.w3.org/2000/svg">
<path d="M46.4286 25.5V34.1538H3.57143V6.46154H21.4286V3H3.57143C2.62423 3 1.71582 3.3647 1.04605 4.01386C0.376274 4.66303 0 5.54348 0 6.46154V34.1538C0 35.0719 0.376274 35.9524 1.04605 36.6015C1.71582 37.2507 2.62423 37.6154 3.57143 37.6154H17.8571V44.5385H10.7143V48H39.2857V44.5385H32.1429V37.6154H46.4286C47.3758 37.6154 48.2842 37.2507 48.954 36.6015C49.6237 35.9524 50 35.0719 50 34.1538V25.5H46.4286ZM28.5714 44.5385H21.4286V37.6154H28.5714V44.5385Z" fill="#AAAAAA"/>
<path d="M50 13.7143V10.2857H46.2482C46.0179 9.21261 45.5741 8.19224 44.9411 7.28057L47.6018 4.72629L45.0768 2.30229L42.4161 4.85657C41.4664 4.24888 40.4035 3.8228 39.2857 3.60171V0H35.7143V3.60171C34.5965 3.8228 33.5336 4.24888 32.5839 4.85657L29.9232 2.30229L27.3982 4.72629L30.0589 7.28057C29.4259 8.19224 28.9821 9.21261 28.7518 10.2857H25V13.7143H28.7518C28.9821 14.7874 29.4259 15.8078 30.0589 16.7194L27.3982 19.2737L29.9232 21.6977L32.5839 19.1434C33.5336 19.7511 34.5965 20.1772 35.7143 20.3983V24H39.2857V20.3983C40.4035 20.1772 41.4664 19.7511 42.4161 19.1434L45.0768 21.6977L47.6018 19.2737L44.9411 16.7194C45.5741 15.8078 46.0179 14.7874 46.2482 13.7143H50ZM37.5 17.1429C36.4405 17.1429 35.4047 16.8412 34.5237 16.2761C33.6428 15.711 32.9561 14.9078 32.5506 13.9681C32.1452 13.0284 32.0391 11.9943 32.2458 10.9967C32.4525 9.99906 32.9627 9.08269 33.7119 8.36345C34.4611 7.64421 35.4157 7.1544 36.4549 6.95596C37.4941 6.75752 38.5712 6.85937 39.5501 7.24862C40.529 7.63787 41.3657 8.29704 41.9543 9.14278C42.543 9.98852 42.8571 10.9828 42.8571 12C42.8557 13.3636 42.2909 14.6709 41.2865 15.635C40.2822 16.5992 38.9204 17.1415 37.5 17.1429V17.1429Z" fill="#AAAAAA"/>
</svg>
