<svg width="18" height="16" viewBox="0 0 18 16" fill="none" xmlns="http://www.w3.org/2000/svg">
<path d="M9 0C11.4453 0 11.7504 0.00799995 12.7098 0.048C13.6683 0.088 14.3208 0.2216 14.895 0.42C15.489 0.6232 15.9894 0.8984 16.4898 1.3424C16.9474 1.74232 17.3016 2.22607 17.5275 2.76C17.7498 3.2696 17.901 3.8504 17.946 4.7024C17.9883 5.5552 18 5.8264 18 8C18 10.1736 17.991 10.4448 17.946 11.2976C17.901 12.1496 17.7498 12.7296 17.5275 13.24C17.3022 13.7742 16.948 14.2581 16.4898 14.6576C16.0398 15.0643 15.4956 15.379 14.895 15.58C14.3217 15.7776 13.6683 15.912 12.7098 15.952C11.7504 15.9896 11.4453 16 9 16C6.5547 16 6.2496 15.992 5.2902 15.952C4.3317 15.912 3.6792 15.7776 3.105 15.58C2.50409 15.3796 1.95977 15.0648 1.5102 14.6576C1.05247 14.2577 0.698338 13.774 0.4725 13.24C0.2493 12.7304 0.0989999 12.1496 0.0539999 11.2976C0.0116999 10.4448 0 10.1736 0 8C0 5.8264 0.00899995 5.5552 0.0539999 4.7024C0.0989999 3.8496 0.2493 3.2704 0.4725 2.76C0.697713 2.22574 1.05192 1.74186 1.5102 1.3424C1.9599 0.935385 2.50419 0.620583 3.105 0.42C3.6792 0.2216 4.3308 0.088 5.2902 0.048C6.2496 0.0104 6.5547 0 9 0ZM9 4C7.80653 4 6.66193 4.42143 5.81802 5.17157C4.97411 5.92172 4.5 6.93913 4.5 8C4.5 9.06087 4.97411 10.0783 5.81802 10.8284C6.66193 11.5786 7.80653 12 9 12C10.1935 12 11.3381 11.5786 12.182 10.8284C13.0259 10.0783 13.5 9.06087 13.5 8C13.5 6.93913 13.0259 5.92172 12.182 5.17157C11.3381 4.42143 10.1935 4 9 4ZM14.85 3.8C14.85 3.53478 14.7315 3.28043 14.5205 3.09289C14.3095 2.90536 14.0234 2.8 13.725 2.8C13.4266 2.8 13.1405 2.90536 12.9295 3.09289C12.7185 3.28043 12.6 3.53478 12.6 3.8C12.6 4.06522 12.7185 4.31957 12.9295 4.50711C13.1405 4.69464 13.4266 4.8 13.725 4.8C14.0234 4.8 14.3095 4.69464 14.5205 4.50711C14.7315 4.31957 14.85 4.06522 14.85 3.8ZM9 5.6C9.71608 5.6 10.4028 5.85286 10.9092 6.30294C11.4155 6.75303 11.7 7.36348 11.7 8C11.7 8.63652 11.4155 9.24697 10.9092 9.69706C10.4028 10.1471 9.71608 10.4 9 10.4C8.28392 10.4 7.59716 10.1471 7.09081 9.69706C6.58446 9.24697 6.3 8.63652 6.3 8C6.3 7.36348 6.58446 6.75303 7.09081 6.30294C7.59716 5.85286 8.28392 5.6 9 5.6Z" fill="#F8F8F8"/>
</svg>
