<svg width="43" height="41" viewBox="0 0 43 41" fill="none" xmlns="http://www.w3.org/2000/svg">
<path d="M21.5 18.45C24.3511 18.45 27.0854 19.5299 29.1014 21.4522C31.1174 23.3744 32.25 25.9815 32.25 28.7V41H10.75V28.7C10.75 25.9815 11.8826 23.3744 13.8986 21.4522C15.9146 19.5299 18.6489 18.45 21.5 18.45ZM7.0692 24.6123C6.72704 25.7127 6.52493 26.8484 6.4672 27.9948L6.45 28.7V41H1.96331e-07V31.775C-0.000423135 30.007 0.683761 28.3011 1.92131 26.9846C3.15887 25.668 4.86265 24.8335 6.70585 24.641L7.07135 24.6123H7.0692ZM35.9308 24.6123C37.8441 24.7235 39.6408 25.5265 40.9545 26.8575C42.2681 28.1886 42.9997 29.9473 43 31.775V41H36.55V28.7C36.55 27.2793 36.335 25.9079 35.9308 24.6123ZM7.525 12.3C8.95054 12.3 10.3177 12.84 11.3257 13.8011C12.3337 14.7622 12.9 16.0658 12.9 17.425C12.9 18.7842 12.3337 20.0878 11.3257 21.0489C10.3177 22.01 8.95054 22.55 7.525 22.55C6.09946 22.55 4.73231 22.01 3.7243 21.0489C2.71629 20.0878 2.15 18.7842 2.15 17.425C2.15 16.0658 2.71629 14.7622 3.7243 13.8011C4.73231 12.84 6.09946 12.3 7.525 12.3ZM35.475 12.3C36.9005 12.3 38.2677 12.84 39.2757 13.8011C40.2837 14.7622 40.85 16.0658 40.85 17.425C40.85 18.7842 40.2837 20.0878 39.2757 21.0489C38.2677 22.01 36.9005 22.55 35.475 22.55C34.0495 22.55 32.6823 22.01 31.6743 21.0489C30.6663 20.0878 30.1 18.7842 30.1 17.425C30.1 16.0658 30.6663 14.7622 31.6743 13.8011C32.6823 12.84 34.0495 12.3 35.475 12.3ZM21.5 0C23.7809 0 25.9683 0.863926 27.5811 2.40172C29.1939 3.93952 30.1 6.02522 30.1 8.2C30.1 10.3748 29.1939 12.4605 27.5811 13.9983C25.9683 15.5361 23.7809 16.4 21.5 16.4C19.2191 16.4 17.0317 15.5361 15.4189 13.9983C13.8061 12.4605 12.9 10.3748 12.9 8.2C12.9 6.02522 13.8061 3.93952 15.4189 2.40172C17.0317 0.863926 19.2191 0 21.5 0Z" fill="#ABABAB"/>
</svg>
