<svg width="48" height="45" viewBox="0 0 48 45" fill="none" xmlns="http://www.w3.org/2000/svg">
<path fill-rule="evenodd" clip-rule="evenodd" d="M0 22.5C0 10.0739 10.7455 0 24 0C37.2545 0 48 10.0739 48 22.5C48 34.9261 37.2545 45 24 45C10.7455 45 0 34.9261 0 22.5ZM30.1091 17.1818C29.7619 16.7478 29.245 16.4609 28.6722 16.3842C28.0994 16.3075 27.5175 16.4472 27.0545 16.7727C26.5916 17.0982 26.2856 17.5828 26.2037 18.1198C26.1219 18.6569 26.271 19.2024 26.6182 19.6364L28.9091 22.5L26.6182 25.3636C26.271 25.7976 26.1219 26.3431 26.2037 26.8802C26.2856 27.4172 26.5916 27.9018 27.0545 28.2273C27.5175 28.5528 28.0994 28.6925 28.6722 28.6158C29.245 28.5391 29.7619 28.2522 30.1091 27.8182L31.6364 25.9098L33.1636 27.8182C33.5108 28.2522 34.0277 28.5391 34.6005 28.6158C34.8842 28.6538 35.173 28.639 35.4506 28.5724C35.7281 28.5057 35.989 28.3884 36.2182 28.2273C36.4474 28.0661 36.6405 27.8642 36.7865 27.6331C36.9325 27.4019 37.0285 27.1461 37.069 26.8802C37.1095 26.6143 37.0938 26.3435 37.0226 26.0833C36.9515 25.8231 36.8265 25.5785 36.6545 25.3636L34.3636 22.5L36.6545 19.6364C37.0017 19.2024 37.1508 18.6569 37.069 18.1198C36.9871 17.5828 36.6811 17.0982 36.2182 16.7727C35.989 16.6116 35.7281 16.4943 35.4506 16.4276C35.173 16.361 34.8842 16.3462 34.6005 16.3842C34.0277 16.4609 33.5108 16.7478 33.1636 17.1818L31.6364 19.0902L30.1091 17.1818ZM15.2727 18.4091C15.2727 17.8666 15.0429 17.3463 14.6337 16.9627C14.2245 16.5791 13.6696 16.3636 13.0909 16.3636C12.5123 16.3636 11.9573 16.5791 11.5481 16.9627C11.139 17.3463 10.9091 17.8666 10.9091 18.4091V22.5C10.9091 23.5084 11.2145 24.977 12.192 26.2514C13.2524 27.6341 14.9978 28.6364 17.4545 28.6364C19.9113 28.6364 21.6567 27.63 22.7171 26.2514C23.6945 24.977 24 23.5105 24 22.5V18.4091C24 17.8666 23.7701 17.3463 23.361 16.9627C22.9518 16.5791 22.3968 16.3636 21.8182 16.3636C21.2395 16.3636 20.6846 16.5791 20.2754 16.9627C19.8662 17.3463 19.6364 17.8666 19.6364 18.4091V22.5C19.6364 22.8539 19.5055 23.4327 19.1738 23.8623C18.9251 24.1875 18.4887 24.5455 17.4545 24.5455C16.4204 24.5455 15.984 24.1875 15.7353 23.8623C15.4448 23.4592 15.2843 22.9863 15.2727 22.5V18.4091Z" fill="#ABABAB"/>
</svg>
