<svg width="15" height="14" viewBox="0 0 15 14" fill="none" xmlns="http://www.w3.org/2000/svg">
<path d="M13.8782 3.23742C11.6344 -0.000107204 7.05326 -0.962614 3.50055 1.0499C0.0413358 3.06242 -1.08057 7.43745 1.16324 10.675L1.35023 10.9375L0.60229 13.5625L3.40706 12.8625L3.68754 13.0375C4.90294 13.65 6.21183 14 7.52073 14C8.92311 14 10.3255 13.65 11.5409 12.95C15.0001 10.85 16.0285 6.56244 13.8782 3.23742ZM11.9149 9.97497C11.5409 10.5 11.0734 10.85 10.419 10.9375C10.045 10.9375 9.57756 11.1125 7.70771 10.4125C6.11834 9.71247 4.80945 8.57496 3.87452 7.26245C3.31357 6.64994 3.03309 5.86244 2.9396 5.07493C2.9396 4.37493 3.22008 3.76242 3.68754 3.32492C3.87452 3.14992 4.06151 3.06242 4.24849 3.06242H4.71595C4.90294 3.06242 5.08992 3.06242 5.18342 3.41242C5.3704 3.84992 5.83786 4.89993 5.83786 4.98743C5.93136 5.07493 5.93136 5.24993 5.83786 5.33743C5.93136 5.51244 5.83786 5.68744 5.74437 5.77494C5.65088 5.86244 5.55739 6.03744 5.46389 6.12494C5.27691 6.21244 5.18342 6.38744 5.27691 6.56244C5.65088 7.08745 6.11834 7.61245 6.5858 8.04995C7.14676 8.48746 7.70771 8.83746 8.36216 9.09996C8.54914 9.18746 8.73613 9.18746 8.82962 9.01246C8.92311 8.83746 9.39057 8.39996 9.57756 8.22496C9.76454 8.04995 9.85804 8.04996 10.045 8.13746L11.5409 8.83746C11.7279 8.92496 11.9149 9.01246 12.0084 9.09996C12.1019 9.36246 12.1019 9.71247 11.9149 9.97497Z" fill="#F8F8F8"/>
</svg>
