<svg width="26" height="22" viewBox="0 0 26 22" fill="none" xmlns="http://www.w3.org/2000/svg">
<path d="M13 0C5.8175 0 0 5.04701 0 11.2782C0 16.2688 3.72125 20.4841 8.88875 21.9785C9.53875 22.0771 9.7825 21.7388 9.7825 21.4427C9.7825 21.1749 9.76625 20.2867 9.76625 19.3422C6.5 19.8638 5.655 18.6514 5.395 18.017C5.24875 17.6927 4.615 16.6918 4.0625 16.4239C3.6075 16.2125 2.9575 15.6908 4.04625 15.6767C5.07 15.6626 5.80125 16.4944 6.045 16.8328C7.215 18.5386 9.08375 18.0593 9.83125 17.7632C9.945 17.0301 10.2862 16.5367 10.66 16.2548C7.7675 15.9728 4.745 15 4.745 10.6861C4.745 9.45962 5.24875 8.44458 6.0775 7.6551C5.9475 7.37314 5.4925 6.21713 6.2075 4.66637C6.2075 4.66637 7.29625 4.37031 9.7825 5.82239C10.8225 5.56863 11.9275 5.44175 13.0325 5.44175C14.1375 5.44175 15.2425 5.56863 16.2825 5.82239C18.7688 4.35622 19.8575 4.66637 19.8575 4.66637C20.5725 6.21713 20.1175 7.37314 19.9875 7.6551C20.8163 8.44458 21.32 9.44552 21.32 10.6861C21.32 15.0141 18.2813 15.9728 15.3888 16.2548C15.86 16.6072 16.2663 17.2839 16.2663 18.3412C16.2663 19.8497 16.25 21.0621 16.25 21.4427C16.25 21.7388 16.4938 22.0912 17.1438 21.9785C19.7246 21.2228 21.9673 19.7839 23.556 17.8644C25.1448 15.9448 25.9995 13.6414 26 11.2782C26 5.04701 20.1825 0 13 0Z" fill="black"/>
</svg>
