<svg width="19" height="19" viewBox="0 0 19 19" fill="none" xmlns="http://www.w3.org/2000/svg">
<path d="M17.95 5.324C17.9399 4.56662 17.7981 3.81678 17.531 3.108C17.2993 2.51015 16.9455 1.9672 16.4922 1.51383C16.0388 1.06046 15.4958 0.706651 14.898 0.475C14.1983 0.212357 13.4592 0.0703413 12.712 0.0550001C11.75 0.0120001 11.445 0 9.003 0C6.561 0 6.248 6.70552e-08 5.293 0.0550001C4.54616 0.0704541 3.80735 0.212468 3.108 0.475C2.51006 0.706489 1.96702 1.06024 1.51363 1.51363C1.06024 1.96702 0.706489 2.51006 0.475 3.108C0.211831 3.80713 0.0701232 4.54611 0.056 5.293C0.013 6.256 0 6.561 0 9.003C0 11.445 -7.45058e-09 11.757 0.056 12.713C0.071 13.461 0.212 14.199 0.475 14.9C0.706878 15.4978 1.0609 16.0406 1.51444 16.4938C1.96798 16.947 2.51106 17.3006 3.109 17.532C3.80643 17.8052 4.54537 17.9574 5.294 17.982C6.257 18.025 6.562 18.038 9.004 18.038C11.446 18.038 11.759 18.038 12.714 17.982C13.4612 17.9673 14.2004 17.8256 14.9 17.563C15.4977 17.3311 16.0405 16.9772 16.4938 16.5238C16.9472 16.0705 17.3011 15.5277 17.533 14.93C17.796 14.23 17.937 13.492 17.952 12.743C17.995 11.781 18.008 11.476 18.008 9.033C18.006 6.591 18.006 6.281 17.95 5.324V5.324ZM8.997 13.621C6.443 13.621 4.374 11.552 4.374 8.998C4.374 6.444 6.443 4.375 8.997 4.375C10.2231 4.375 11.399 4.86207 12.266 5.72905C13.1329 6.59603 13.62 7.7719 13.62 8.998C13.62 10.2241 13.1329 11.4 12.266 12.267C11.399 13.1339 10.2231 13.621 8.997 13.621V13.621ZM13.804 5.282C13.6624 5.28213 13.5222 5.25434 13.3913 5.20021C13.2605 5.14608 13.1416 5.06668 13.0414 4.96655C12.9413 4.86643 12.8619 4.74754 12.8078 4.61669C12.7537 4.48584 12.7259 4.3456 12.726 4.204C12.726 4.0625 12.7539 3.92239 12.808 3.79166C12.8622 3.66093 12.9415 3.54215 13.0416 3.44209C13.1416 3.34204 13.2604 3.26267 13.3912 3.20852C13.5219 3.15437 13.662 3.1265 13.8035 3.1265C13.945 3.1265 14.0851 3.15437 14.2158 3.20852C14.3466 3.26267 14.4654 3.34204 14.5654 3.44209C14.6655 3.54215 14.7448 3.66093 14.799 3.79166C14.8531 3.92239 14.881 4.0625 14.881 4.204C14.881 4.8 14.399 5.282 13.804 5.282Z" fill="black"/>
<path d="M8.99714 12.0011C10.6557 12.0011 12.0001 10.6566 12.0001 8.99812C12.0001 7.33961 10.6557 5.99512 8.99714 5.99512C7.33863 5.99512 5.99414 7.33961 5.99414 8.99812C5.99414 10.6566 7.33863 12.0011 8.99714 12.0011Z" fill="black"/>
</svg>
